HIERARCHY
ROOT Hips
{
  OFFSET 0.382225 96.6805 0.598322
  CHANNELS 6 Xposition Yposition Zposition Zrotation Xrotation Yrotation
  JOINT Spine
  {
    OFFSET 10.8089 -0.851416 0
    CHANNELS 3 Zrotation Xrotation Yrotation
    JOINT Spine1
    {
      OFFSET 18.8753 3.80116 0
      CHANNELS 3 Zrotation Xrotation Yrotation
      JOINT Spine2
      {
        OFFSET 13.4073 0.420477 0
        CHANNELS 3 Zrotation Xrotation Yrotation
        JOINT LeftShoulder
        {
          OFFSET 11.8837 -2.73209 -3.78198
          CHANNELS 3 Zrotation Xrotation Yrotation
          JOINT LeftArm
          {
            OFFSET 15.7849 0 -2.35849e-005
            CHANNELS 3 Zrotation Xrotation Yrotation
            JOINT LeftForeArm
            {
              OFFSET 30.3399 0 0
              CHANNELS 3 Zrotation Xrotation Yrotation
              JOINT LeftHand
              {
                OFFSET 26.9751 0 2.45913e-005
                CHANNELS 3 Zrotation Xrotation Yrotation
                End Site
                {
                  OFFSET 8 0 0
                }
              }
            }
          }
        }
        JOINT RightShoulder
        {
          OFFSET 11.8838 -2.7321 3.782
          CHANNELS 3 Zrotation Xrotation Yrotation
          JOINT RightArm
          {
            OFFSET -15.7848 0 -1.07056e-005
            CHANNELS 3 Zrotation Xrotation Yrotation
            JOINT RightForeArm
            {
              OFFSET -30.34 1.02096e-005 -2.53607e-005
              CHANNELS 3 Zrotation Xrotation Yrotation
              JOINT RightHand
              {
                OFFSET -26.9752 2.07668e-005 0
                CHANNELS 3 Zrotation Xrotation Yrotation
                End Site
                {
                  OFFSET -8 0 0
                }
              }
            }
          }
        }
        JOINT Neck
        {
          OFFSET 16.5588 -0.355318 0
          CHANNELS 3 Zrotation Xrotation Yrotation
          JOINT Head
          {
            OFFSET 9.28361 0.364157 0
            CHANNELS 3 Zrotation Xrotation Yrotation
            End Site
            {
              OFFSET 0 0 0
            }
          }
        }
      }
    }
  }
  JOINT LeftUpLeg
  {
    OFFSET -1.44883 -0.531424 -9.00581
    CHANNELS 3 Zrotation Xrotation Yrotation
    JOINT LeftLeg
    {
      OFFSET -42.572 0.0788889 -0.011964
      CHANNELS 3 Zrotation Xrotation Yrotation
      JOINT LeftFoot
      {
        OFFSET -40.1967 0 0
        CHANNELS 3 Zrotation Xrotation Yrotation
				JOINT LeftToe
        {
          OFFSET -10.4538 -16.5779 0.0801563
          CHANNELS 3 Zrotation Xrotation Yrotation
          End Site
          {
            OFFSET -1.0 -1.0 0.0
          }
        }
      }
    }
  }
  JOINT RightUpLeg
  {
    OFFSET -1.44865 -0.531427 9.0058
    CHANNELS 3 Zrotation Xrotation Yrotation
    JOINT RightLeg
    {
      OFFSET 42.5723 -3.24776e-005 0
      CHANNELS 3 Zrotation Xrotation Yrotation
      JOINT RightFoot
      {
        OFFSET 40.1968 0 -1.14003e-005
        CHANNELS 3 Zrotation Xrotation Yrotation
				JOINT RightToe
        {
          OFFSET 10.4538 16.5778 -0.0801573
          CHANNELS 3 Zrotation Xrotation Yrotation
          End Site
          {
            OFFSET -1.0 -1.0 0.0
          }
        }
      }
    }
  }
}
MOTION
Frames:	13
Frame Time:	0.0333333
-76.2258 57.5202 96.0741 69.9778 73.9008 51.9756 -75.9538 -23.7448 4.83005 14.0938 -0.00148376 -0.00293024 2.7794 1.93418e-006 1.65929e-005 -2.71754 4.48456 63.3783 -23.3047 7.67488 11.0023 -32.7411 -10.1436 -7.38182 -64.7255 -26.3017 -105.509 172.53 16.4559 104.36 -7.90424 16.3243 57.1285 -81.1077 -8.88026 -6.36366 -48.0795 -50.2966 -35.9747 -23.508 4.63459e-006 -5.90926e-006 -13.5042 -21.0356 -38.2453 78.3274 11.6531 -17.9832 -125.377 5.97389 -2.87702 45.2718 1.8067 -29.9151 -90 0 0 -113.64 17.94 -21.758 -22.2656 -5.37212 -0.533901 -32.7731 -27.0279 12.9851 -90 0 0
-67.7869 59.6636 97.7207 11.1631 85.107 111.497 -76.4956 -23.9881 -1.3549 15.7717 -0.0858117 -0.163379 2.7794 1.93418e-006 1.65929e-005 -3.69367 2.01417 61.826 -30.8616 6.8759 5.11639 -18.319 -13.3801 -1.05347 -57.2667 -72.3721 -63.0659 171.437 17.6685 105.532 -9.7831 15.4642 52.3304 -86.1835 -8.70846 -6.79443 -46.8663 -53.7024 -34.0214 -23.508 4.63459e-006 -5.90926e-006 -20.9751 -21.9419 -40.6422 77.5621 7.17624 -20.7323 -124.707 5.69942 -2.91725 45.2363 2.67953 -26.979 -90 0 0 -106.356 15.1697 -14.8624 -41.7478 -3.94906 -3.07236 -14.137 -29.51 21.344 -90 0 0
-58.592 61.49 96.4617 -74.4089 73.9369 -164.307 -75.028 -23.1633 -5.97828 17.8417 -0.196266 -0.35786 2.7794 1.93418e-006 1.65929e-005 -4.72912 -0.206689 60.2051 -37.2729 8.06828 6.55915 -29.693 -10.9673 -6.1036 -57.199 -66.9886 -58.9796 170.457 17.829 107.814 -9.57147 17.3051 48.4103 -89.6389 -8.57037 -7.0782 -50.0169 -53.3059 -37.017 -23.508 4.63459e-006 -5.90926e-006 -24.5922 -25.5924 -41.8935 76.2305 4.44646 -22.4264 -123.236 5.39804 -3.01846 44.9821 2.94872 -24.4661 -90 0 0 -100.676 14.0057 -10.4497 -55.8748 -2.43674 -4.51361 -0.569115 -23.6156 22.0929 -90 0 0
-50.4755 63.041 92.3382 -85.3474 56.8487 -157.167 -72.3184 -22.2577 -7.9495 19.6573 -0.2989 -0.525081 2.7794 1.93418e-006 1.65929e-005 -5.62538 -2.1352 60.0993 -40.8415 11.4799 3.52842 -48.415 -4.77478 -13.2628 -51.118 -54.5449 -49.3795 170.268 17.3664 109.033 -8.89741 19.054 48.8532 -88.554 -8.61558 -6.99001 -52.7375 -58.1649 -41.0805 -23.508 4.63459e-006 -5.90926e-006 -16.394 -26.9172 -38.2849 73.6423 4.65414 -23.3266 -120.579 5.0243 -3.18429 44.251 3.29795 -23.0548 -90 0 0 -98.6009 12.9377 -7.37962 -66.5361 -1.08027 -5.33462 4.41299 -22.2429 21.3723 -90 0 0
-44.6483 64.393 86.2385 -90.3104 39.3488 -157.611 -68.474 -19.8656 -8.19026 21.1916 -0.389742 -0.663818 2.7794 1.93418e-006 1.65929e-005 -5.80795 -2.54454 60.1615 -46.0264 5.50943 0.331871 -60.6503 0.607149 -16.8179 -53.9151 -54.0269 -50.5524 171.31 15.7668 108.96 -7.07144 21.2482 50.1712 -83.0767 -8.81833 -6.53258 -58.9324 -64.3752 -48.9198 -23.508 4.63459e-006 -5.90926e-006 4.32317 -16.9516 -25.9505 69.9364 5.91898 -23.7127 -117.239 4.5352 -3.37461 42.4123 1.79888 -20.6089 -90 0 0 -99.8219 12.6272 -5.18656 -75.11 0.1082 -5.79169 8.63861 -24.0137 20.3737 -90 0 0
-41.7357 65.7317 79.3676 -93.1657 21.7719 -161.286 -63.8162 -15.8052 -8.51479 21.6266 -0.416177 -0.702717 2.7794 1.93418e-006 1.65929e-005 -4.2241 0.669527 62.5683 -53.234 -4.0909 -2.53983 -65.5475 2.99823 -17.9273 -56.4576 -49.3972 -51.626 172.06 15.119 107.938 -4.9298 22.2605 49.4463 -77.8043 -8.97156 -6.07583 -47.0462 -63.9268 -36.0429 -23.508 4.63459e-006 -5.90926e-006 22.2678 9.78516 -11.0152 65.7556 7.29903 -23.4265 -113.281 3.85542 -3.57899 39.1777 -3.55375 -15.044 -90 0 0 -103.215 13.3383 -5.23836 -80.5859 0.863388 -5.98085 12.8097 -26.8789 22.2763 -90 0 0
-41.1937 67.5316 73.1794 -95.4346 4.70894 -167.522 -58.9854 -10.6984 -6.14149 20.7668 -0.364231 -0.625651 2.7794 1.93418e-006 1.65929e-005 -3.07331 3.58872 68.778 -60.6471 -11.4046 -8.16757 -65.3376 2.89385 -17.8839 -47.3915 -45.4342 -43.0412 174.006 14.3537 103.192 -2.91062 24.2123 50.7814 -71.3879 -9.10114 -5.50382 -51.0381 -64.1187 -38.8126 -23.508 4.63459e-006 -5.90926e-006 26.4798 39.4112 1.97498 62.5095 10.0643 -23.0719 -108.82 3.11828 -3.77547 31.5199 -14.6412 -10.4075 -90 0 0 -108.641 11.0046 -6.41495 -80.2817 0.815614 -5.97584 14.1686 -28.6968 23.5383 -90 0 0
-41.5936 69.5801 67.7793 -96.9 -11.9948 -175.192 -54.2648 -7.23662 0.141585 19.5948 -0.295276 -0.519375 2.7794 1.93418e-006 1.65929e-005 -3.00251 3.64409 74.572 -66.4586 -13.5108 -12.784 -60.6734 0.620685 -16.8251 -46.1225 -45.0904 -40.2527 177.718 11.1722 94.5241 -6.6833 29.4489 54.9186 -62.4393 -9.17485 -4.68936 -49.2183 -67.2741 -38.8258 -23.508 4.63459e-006 -5.90926e-006 25.9077 55.7643 10.6477 60.996 14.3583 -22.4875 -102.452 2.44514 -3.9753 20.3654 -33.2175 -11.7636 -90 0 0 -115.432 5.76974 -8.9524 -71.497 -0.346725 -5.63451 10.8193 -27.1068 18.9063 -90 0 0
-43.0673 71.1074 62.6786 -97.4414 -28.5805 178.339 -50.1349 -6.53195 7.5139 19.5438 -0.292336 -0.514734 2.7794 1.93418e-006 1.65929e-005 -2.89665 4.12673 76.7434 -67.9627 -13.4264 -12.513 -55.3033 -1.85535 -15.3964 -53.2168 -45.9438 -46.1558 179.469 8.03769 90.7246 -11.1509 36.2281 50.7034 -62.1346 -9.16623 -4.66461 -34.8466 -65.4875 -20.942 -23.508 4.63459e-006 -5.90926e-006 30.6459 61.4218 11.0902 64.7345 13.9205 -25.5606 -92.7421 0.326207 -4.09567 14.5727 -45.1908 20.2879 -90 0 0 -123.318 0.0909445 -13.8749 -56.0179 -2.33848 -4.52626 -0.261769 -20.4424 17.0788 -90 0 0
-46.5795 72.3279 58.8922 -99.6506 -44.7589 174.275 -47.232 -7.557 12.9349 19.7522 -0.30441 -0.533737 2.7794 1.93418e-006 1.65929e-005 -2.7895 4.92117 76.8405 -64.3198 -12.4906 -10.5106 -50.1024 -4.08661 -13.8163 -50.3759 -45.1808 -43.0031 -179.719 6.71012 88.0138 -9.10247 31.9054 44.3566 -62.5389 -9.17427 -4.69861 -37.0181 -66.5961 -24.5845 -23.508 4.63459e-006 -5.90926e-006 40.8737 63.1439 0.641385 68.0405 14.4272 -28.5176 -83.4862 -0.575315 -4.08259 8.20218 -27.8865 12.3678 -90 0 0 -127.665 -1.55235 -18.8501 -61.6983 -1.52532 -5.01313 3.63335 -8.67757 15.5399 -90 0 0
-50.6731 73.4138 57.2687 -105.33 -59.2284 169.948 -46.5901 -8.2136 16.0795 21.2812 -0.395177 -0.671861 2.7794 1.93418e-006 1.65929e-005 -2.78613 4.93626 78.4883 -59.7002 -10.6761 -8.06889 -43.558 -6.63327 -11.5819 -49.1324 -45.2009 -42.0536 -179.599 6.35133 87.7363 -4.30095 16.7626 38.9993 -65.0042 -9.16653 -4.92382 -48.5655 -63.3388 -37.3508 -23.508 4.63459e-006 -5.90926e-006 51.1556 60.5693 -11.8481 67.0129 8.27194 -29.7056 -77.6623 -0.714072 -3.98688 11.4785 -12.6137 -0.894476 -90 0 0 -131.388 6.31892 -25.4367 -65.942 -0.877683 -5.3315 9.13932 -2.74874 15.3897 -90 0 0
-54.1643 74.4837 58.4437 -114.515 -69.6717 160.844 -44.2504 -9.31945 21.6927 22.9526 -0.49855 -0.820013 2.7794 1.93418e-006 1.65929e-005 -2.8362 4.24835 79.8607 -52.9197 -10.5952 -1.97646 -40.7677 -7.62427 -10.5544 -51.5486 -47.3288 -45.7096 179.697 7.86909 89.7793 -6.14097 -6.78393 40.0321 -69.5159 -9.12763 -5.33376 -55.4439 -66.2371 -39.9879 -23.508 4.63459e-006 -5.90926e-006 56.8226 53.2426 -22.015 61.395 3.33691 -31.602 -71.8668 -0.817142 -3.78964 7.8247 2.33445 -16.2531 -90 0 0 -133.222 15.3466 -34.109 -68.081 -0.534963 -5.48209 13.9835 -1.97457 15.4526 -90 0 0
-56.0154 76.125 62.4577 -132.538 -76.6275 144.096 -40.9768 -7.59828 24.971 25.0073 -0.63153 -0.997976 2.7794 1.93418e-006 1.65929e-005 -2.73228 6.17998 84.9263 -47.8142 -7.91057 6.84745 -39.7407 -7.97601 -10.1638 -49.1091 -46.9801 -44.5498 179.273 7.63112 92.2827 -14.9899 -27.8152 41.2053 -74.4211 -9.06299 -5.76787 -50.3037 -67.555 -30.8158 -23.508 4.63459e-006 -5.90926e-006 49.4468 45.3161 -21.8389 50.8776 2.67126 -36.1596 -65.7393 -1.49122 -3.49137 5.42302 7.3397 -18.025 -90 0 0 -136.97 24.7269 -41.1943 -65.8461 -0.87908 -5.34323 16.1855 -0.959051 15.7633 -90 0 0
